<?xml version="1.0" encoding="utf-8"?>
<!-- Generator: Adobe Illustrator 25.0.0, SVG Export Plug-In . SVG Version: 6.00 Build 0)  -->
<svg version="1.1" id="Calque_1" xmlns="http://www.w3.org/2000/svg" xmlns:xlink="http://www.w3.org/1999/xlink" x="0px" y="0px"
	 viewBox="0 0 374 422" style="enable-background:new 0 0 374 422;" xml:space="preserve">
<style type="text/css">
	.st0{fill:url(#SVGID_1_);}
	.st1{fill:url(#SVGID_2_);}
	.st2{fill:url(#SVGID_3_);}
	.st3{fill:url(#SVGID_4_);}
	.st4{fill:url(#SVGID_5_);}
	.st5{fill:url(#SVGID_6_);}
	.st6{fill:url(#SVGID_7_);}
	.st7{fill:url(#SVGID_8_);}
	.st8{fill:url(#SVGID_9_);}
	.st9{fill:url(#SVGID_10_);}
	.st10{fill:url(#SVGID_11_);}
	.st11{fill:url(#SVGID_12_);}
	.st12{fill:url(#SVGID_13_);}
	.st13{fill:url(#SVGID_14_);}
	.st14{fill:url(#SVGID_15_);}
	.st15{fill:url(#SVGID_16_);}
	.st16{fill:url(#SVGID_17_);}
	.st17{fill:url(#SVGID_18_);}
	.st18{fill:url(#SVGID_19_);}
</style>
<linearGradient id="SVGID_1_" gradientUnits="userSpaceOnUse" x1="138.4695" y1="345.8458" x2="138.4695" y2="345.8029" gradientTransform="matrix(1 0 0 -1 0 421.8898)">
	<stop  offset="0" style="stop-color:#252D43"/>
	<stop  offset="1" style="stop-color:#27365F"/>
</linearGradient>
<path class="st0" d="M138.4,76.1C138.4,76.1,138.4,76.1,138.4,76.1C138.5,76.1,138.5,76,138.4,76.1
	C138.5,76.1,138.5,76.1,138.4,76.1z"/>
<linearGradient id="SVGID_2_" gradientUnits="userSpaceOnUse" x1="340.0515" y1="229.6038" x2="340.0515" y2="229.2378" gradientTransform="matrix(1 0 0 -1 0 421.8898)">
	<stop  offset="0" style="stop-color:#252D43"/>
	<stop  offset="1" style="stop-color:#27365F"/>
</linearGradient>
<path class="st1" d="M340.1,192.4c0,0,0-0.1,0-0.1c0,0.1,0,0.2,0,0.4C340.1,192.6,340.1,192.5,340.1,192.4z"/>
<linearGradient id="SVGID_3_" gradientUnits="userSpaceOnUse" x1="251.412" y1="345.9434" x2="251.412" y2="345.8214" gradientTransform="matrix(1 0 0 -1 0 421.8898)">
	<stop  offset="0" style="stop-color:#252D43"/>
	<stop  offset="1" style="stop-color:#27365F"/>
</linearGradient>
<path class="st2" d="M251.5,76c-0.1,0-0.1,0-0.2-0.1C251.4,76,251.4,76,251.5,76C251.5,76,251.5,76,251.5,76z"/>
<linearGradient id="SVGID_4_" gradientUnits="userSpaceOnUse" x1="45.2082" y1="162.1028" x2="45.2082" y2="161.7368" gradientTransform="matrix(1 0 0 -1 0 421.8898)">
	<stop  offset="0" style="stop-color:#252D43"/>
	<stop  offset="1" style="stop-color:#27365F"/>
</linearGradient>
<path class="st3" d="M45.2,260l0.1,0.2c0-0.1-0.1-0.2-0.1-0.4C45.1,259.9,45.2,259.9,45.2,260z"/>
<linearGradient id="SVGID_5_" gradientUnits="userSpaceOnUse" x1="122.6885" y1="84.0878" x2="122.6885" y2="83.9908" gradientTransform="matrix(1 0 0 -1 0 421.8898)">
	<stop  offset="0" style="stop-color:#252D43"/>
	<stop  offset="1" style="stop-color:#27365F"/>
</linearGradient>
<path class="st4" d="M122.7,337.9c0,0,0.1,0,0.1,0C122.7,337.9,122.7,337.9,122.7,337.9C122.6,337.8,122.7,337.9,122.7,337.9z"/>
<linearGradient id="SVGID_6_" gradientUnits="userSpaceOnUse" x1="48.5291" y1="114.8988" x2="48.5291" y2="114.8618" gradientTransform="matrix(1 0 0 -1 0 421.8898)">
	<stop  offset="0" style="stop-color:#252D43"/>
	<stop  offset="1" style="stop-color:#27365F"/>
</linearGradient>
<path class="st5" d="M48.5,307L48.5,307C48.5,307,48.5,307,48.5,307z"/>
<linearGradient id="SVGID_7_" gradientUnits="userSpaceOnUse" x1="26.7173" y1="138.9038" x2="26.7173" y2="138.7568" gradientTransform="matrix(1 0 0 -1 0 421.8898)">
	<stop  offset="0" style="stop-color:#252D43"/>
	<stop  offset="1" style="stop-color:#27365F"/>
</linearGradient>
<path class="st6" d="M26.7,283L26.7,283c0,0,0,0.1,0,0.1C26.7,283.1,26.7,283.1,26.7,283z"/>
<linearGradient id="SVGID_8_" gradientUnits="userSpaceOnUse" x1="49.4761" y1="128.1938" x2="49.4761" y2="128.0718" gradientTransform="matrix(1 0 0 -1 0 421.8898)">
	<stop  offset="0" style="stop-color:#252D43"/>
	<stop  offset="1" style="stop-color:#27365F"/>
</linearGradient>
<path class="st7" d="M49.5,293.8C49.5,293.7,49.5,293.7,49.5,293.8C49.5,293.7,49.5,293.8,49.5,293.8
	C49.5,293.8,49.5,293.8,49.5,293.8z"/>
<linearGradient id="SVGID_9_" gradientUnits="userSpaceOnUse" x1="285.4405" y1="54.9118" x2="285.4405" y2="54.8868" gradientTransform="matrix(1 0 0 -1 0 421.8898)">
	<stop  offset="0" style="stop-color:#252D43"/>
	<stop  offset="1" style="stop-color:#27365F"/>
</linearGradient>
<path class="st8" d="M285.5,367C285.5,367,285.4,367,285.5,367C285.4,367,285.4,367,285.5,367z"/>
<linearGradient id="SVGID_10_" gradientUnits="userSpaceOnUse" x1="254.3045" y1="54.9608" x2="254.3045" y2="54.9118" gradientTransform="matrix(1 0 0 -1 0 421.8898)">
	<stop  offset="0" style="stop-color:#252D43"/>
	<stop  offset="1" style="stop-color:#27365F"/>
</linearGradient>
<path class="st9" d="M254.3,367C254.3,367,254.3,367,254.3,367C254.3,367,254.3,366.9,254.3,367C254.3,366.9,254.3,366.9,254.3,367z
	"/>
<linearGradient id="SVGID_11_" gradientUnits="userSpaceOnUse" x1="260.639" y1="66.6948" x2="260.639" y2="66.6458" gradientTransform="matrix(1 0 0 -1 0 421.8898)">
	<stop  offset="0" style="stop-color:#252D43"/>
	<stop  offset="1" style="stop-color:#27365F"/>
</linearGradient>
<path class="st10" d="M260.7,355.2C260.6,355.2,260.6,355.2,260.7,355.2C260.6,355.2,260.6,355.2,260.7,355.2z"/>
<linearGradient id="SVGID_12_" gradientUnits="userSpaceOnUse" x1="186.8245" y1="421.8719" x2="186.8245" y2="6.059042e-06">
	<stop  offset="0" style="stop-color:#252D43"/>
	<stop  offset="1" style="stop-color:#27365F"/>
</linearGradient>
<path class="st11" d="M373.3,155.1c-0.1-0.1-0.2-0.2-0.3-0.3c-1.8-1.5-3.4-3.1-4.9-4.9c-1.7-2-3.3-4.1-4.8-6.3
	c-4.2-5.9-8-12-12.3-17.7c-2.1-2.7-4.3-5.4-6.7-7.8c-2.2-2.2-4.6-4.2-7.4-5.7c-1.8-1-3.7-1.8-5.7-2.2c-2.1-0.5-4.2-0.6-6.4-0.3
	c-2.3,0.2-4.6,1-6.8,1.9c-1,0.4-1.9,0.9-2.9,1.4c0,0-0.1,0-0.1,0c-0.7-0.1-1.3-0.2-2-0.2c-0.5,0-0.9,0-1.4,0
	c-1.1-1.3-2.2-2.6-3.4-3.9c0,0,0.1,0,0.1,0c0.1,0,0.2-0.1,0.2-0.2c0.6-0.5,1.1-1.1,1.6-1.7c1,0.2,1.9,0.4,2.9,0.5
	c2.5,0.4,4.9,0.2,7.1-0.3c1-0.2,1.9-0.6,2.9-1.1c0.9-0.5,1.8-1,2.6-1.7c1.3-1.1,2.5-2.8,3.4-4.6c2.1-4.5,2.5-9.4,2.6-13.2
	c0.1-5.4-0.3-10.8-0.9-15.8c-0.1-1.2-0.3-2.3-0.4-3.5c0-0.3-0.2-0.6-0.6-0.8c-0.4-0.2-0.8-0.2-1.1,0c-0.2,0.1-0.3,0.2-0.4,0.4
	c-0.4,0.7-0.8,1.4-1.5,2.1c-2,2.4-4.5,4.5-6.9,6.5l-2.3,1.9c-2.1,1.8-4.3,3.6-6.3,5.5c-0.2,0.2-0.4,0.4-0.6,0.6
	c-0.3-0.9-0.6-1.7-0.9-2.6c-0.6-1.8-1.2-3.6-1.7-5.4c-0.6-2.2-1.1-4.5-1.5-6.8c-0.7-4.5-0.9-9-0.9-13.6c0.1-4.6,0.5-9.2,1-13.9
	c0,0,0-0.1,0-0.1c0-0.1,0-0.1,0-0.2v0c0.1-0.8,0.2-1.6,0.2-2.4c0-0.4,0-0.7-0.2-1c-0.2-0.3-0.5-0.5-0.8-0.6c-0.3-0.1-0.7,0-1,0.2
	c-0.3,0.2-0.4,0.5-0.6,0.8c0,0,0,0,0,0.1c-0.2,0.6-0.5,1.2-0.8,1.7c-0.2,0.5-0.5,0.9-0.8,1.4c-0.7,0.9-1.4,1.8-2.3,2.5
	c-1.6,1.3-3.4,2.3-5.3,3.2h0c-3.9,1.8-8,3-11.6,5.3c-1.8,1.1-3.4,2.5-4.6,4.2c-0.6,0.9-1.2,1.8-1.6,2.8c-0.5,1.2-0.8,2.4-1,3.7
	c-0.8,4.9,0.4,9.9,2.5,14.4c2.1,4.6,5.1,8.7,8.3,12.6c-2.5-1.9-5.1-3.7-7.7-5.4c-3.5-2.3-7.1-4.4-10.7-6.4c-1.7-0.9-3.4-1.8-5.1-2.6
	c-3.9-2.6-7.9-5-11.9-7.3c-8.5-4.6-17.4-8.4-26.6-11.4c-9-2.9-18.3-4.8-27.6-6c-6.2-0.8-12.4-1.2-18.5-1.2c-1,0-2,0-3.1,0
	c0.8-0.4,1.6-0.9,2.4-1.4c4.1-2.7,7.8-6.2,9.8-10.8c0.5-1.2,0.9-2.4,1.1-3.7c0.2-1,0.2-2.1,0.2-3.2c-0.1-2.1-0.7-4.1-1.6-6
	c-1.8-3.9-4.6-7.1-6.9-10.7c-1.1-1.8-2.1-3.6-2.7-5.5c-0.3-1.1-0.5-2.2-0.6-3.3c0-0.5,0-1.1,0-1.6c0-0.6,0.2-1.2,0.3-1.9
	c0,0,0,0,0-0.1c0.1-0.3,0.1-0.6,0-1c-0.1-0.3-0.4-0.6-0.7-0.7c-0.3-0.1-0.7-0.1-1,0c-0.3,0.1-0.5,0.4-0.7,0.7
	c-0.4,0.7-0.7,1.4-1.1,2.1c0,0,0,0,0,0c0,0-0.1,0.1-0.1,0.2c0,0,0,0.1,0,0.1c0,0,0,0,0,0c-2.1,4.1-4.2,8.2-6.6,12.2
	c-2.4,3.9-5,7.6-8,11c-1.6,1.7-3.2,3.3-4.9,4.9c-1.4,1.2-2.9,2.4-4.4,3.6c-0.7,0.6-1.4,1.1-2.1,1.7c-0.1-0.3-0.1-0.6-0.2-0.8
	c-0.7-2.7-1.6-5.4-2.4-8.1l-0.9-2.8c-0.9-3-1.9-6-2.3-9.2c-0.1-1-0.1-1.8-0.1-2.6c0-0.2,0-0.4-0.1-0.6c-0.2-0.3-0.5-0.5-0.9-0.6
	c-0.4,0-0.7,0.1-0.9,0.3c-0.8,0.9-1.5,1.8-2.3,2.7c-3.2,3.9-6.5,8.2-9.3,12.8c-2,3.3-4.3,7.7-4.9,12.6c-0.3,2.1-0.1,4.1,0.4,5.8
	c0.3,1,0.7,2,1.2,2.9c0.5,0.9,1.1,1.7,1.8,2.5c1.6,1.7,3.6,3.1,5.9,4.1c0.6,0.3,1.3,0.5,1.9,0.8c-2.3,0.7-4.6,1.5-6.9,2.3
	c-0.4-0.8-0.9-1.6-1.4-2.3c-1.3-2-2.8-3.8-4.7-5.3c-1.7-1.3-3.5-2.4-5.5-3.2c-1.9-0.7-3.9-1.1-6-1.2c-3.1-0.2-6.2,0.2-9.3,0.8
	c-3.4,0.7-6.6,1.8-9.8,3c-6.7,2.5-13.2,5.6-19.8,8.2c-2.4,1-4.9,1.9-7.4,2.7c-2.2,0.7-4.5,1.2-6.9,1.5c-0.1,0-0.2,0-0.3,0
	c-0.4,0-0.8,0.3-0.8,0.7c0,0.1,0,0.3,0.1,0.4c0.1,0.2,0.4,0.3,0.6,0.4c0.5,0,1,0.1,1.5,0.2c1.5,0.2,3,0.7,4.4,1.2
	c1.6,0.7,3.1,1.7,4.5,2.8c1.8,1.4,3.4,3,5.1,4.6c1.7,1.6,3.4,3.1,5.3,4.3c2,1.3,4.3,2.2,6.6,2.6c1.2,0.2,2.3,0.3,3.5,0.3
	c-1.8,1.4-3.6,2.8-5.4,4.3c-2.6-2.1-5.5-3.8-8.6-4.8c-2.4-0.8-4.9-1.2-7.5-1.4c-0.9-0.1-1.8-0.1-2.7-0.1c-0.5,0-0.9,0-1.4,0
	c-1.3,0-2.6,0.2-3.8,0.3c-0.3,0-0.6,0.1-0.9,0.4c-0.2,0.2-0.4,0.6-0.4,0.9c0,0.2,0.1,0.5,0.2,0.6c0,0.1,0.1,0.2,0.2,0.3
	c0.1,0.1,0.3,0.2,0.6,0.3l0.4,0.1c0.3,0.1,0.5,0.2,0.8,0.3c0.8,0.3,1.5,0.8,2.2,1.3c1.1,0.8,2,1.8,3.1,3.1l-0.2-0.2
	c0.8,1.1,1.6,2.2,2.3,3.3c0.5,0.8,1,1.6,1.6,2.3c0.7,0.9,1.3,1.9,2.1,2.7c0.3,0.3,0.5,0.5,0.8,0.7c-0.1,0.1-0.2,0.2-0.3,0.3
	c-6.6,6.7-12.6,14.1-17.9,21.9c-5.2,7.6-9.5,15.7-13.2,24.1c-3.8,8.8-6.8,18-9,27.4c-2.1,9.4-3.3,19.1-3.6,28.7
	c-0.3,9.5,0.4,19,1.8,28.3c1.2,7.9,3.1,15.7,5.6,23.2c-0.1,0-0.2-0.1-0.3-0.2c-1-0.5-2-0.8-3.2-0.9c-0.9,0-1.8,0-3,0.3
	c-1.1,0.3-2.2,0.7-3.3,1.1c-0.9,0.3-1.7,0.7-2.6,1.1c-1.2,0.5-2.5,1.1-3.7,1.5l0.2,0c-1.6,0.5-2.9,0.8-4.3,0.9c-0.9,0-1.7,0-2.6-0.1
	c-0.3,0-0.6-0.1-0.8-0.2l-0.4-0.1c-0.2-0.1-0.4-0.1-0.7,0c-0.1,0-0.2,0.1-0.3,0.1c-0.2,0.1-0.4,0.2-0.5,0.4c-0.2,0.3-0.2,0.6-0.2,1
	c0.1,0.4,0.3,0.6,0.6,0.8c1,0.8,2,1.6,3.1,2.3c1,0.8,2.2,1.5,3.5,2.1c2.3,1.2,4.6,2.2,7.1,2.9c4.7,1.2,9.7,1.1,14.5-0.4
	c0.7,2.6,1.5,5.2,2.3,7.8c0.6,2,1.3,3.9,2.1,5.8c-0.9-1.1-1.9-2.3-3-3.3c-2-1.9-4.3-3.4-6.8-4.5c-2.2-1-4.6-1.4-7-1.4
	c-2.3,0-4.5,0.3-6.8,0.8c-2.3,0.4-4.5,0.9-6.8,1.1c-1.8,0.1-3.5,0.1-5.3-0.1c-1.5-0.3-3-0.7-4.4-1.3c-0.5-0.2-0.9-0.4-1.3-0.7
	c-0.2-0.1-0.5-0.1-0.7,0c-0.1,0-0.2,0.1-0.3,0.3c-0.2,0.4-0.1,0.8,0.2,1c0.1,0.1,0.2,0.1,0.2,0.2c1.8,1.5,3.4,3.2,5,5
	c1.7,2,3.3,4.1,4.8,6.3c4.2,5.9,8,12,12.3,17.7c2.1,2.7,4.3,5.4,6.7,7.8c2.2,2.2,4.6,4.2,7.4,5.7c1.8,1,3.7,1.8,5.7,2.2
	c2.1,0.5,4.2,0.6,6.4,0.3c2.3-0.2,4.6-1,6.8-1.9c1-0.4,1.9-0.9,2.9-1.4c0,0,0.1,0,0.1,0c0.6,0.1,1.2,0.1,1.8,0.2
	c1.2,1.7,2.5,3.4,3.7,5.1c-0.2,0.2-0.5,0.5-0.7,0.7c-0.9-0.2-1.9-0.4-2.9-0.5c-2.5-0.4-4.9-0.2-7.1,0.3c-1,0.2-1.9,0.6-2.9,1.1
	c-0.9,0.5-1.8,1-2.6,1.7c-1.3,1.1-2.5,2.8-3.4,4.6c-2.1,4.5-2.5,9.4-2.6,13.2c-0.1,5.4,0.3,10.8,0.9,15.8c0.1,1.2,0.3,2.3,0.4,3.5
	c0,0.3,0.2,0.6,0.6,0.8c0.4,0.2,0.8,0.2,1.1,0c0.2-0.1,0.3-0.2,0.4-0.4c0.4-0.7,0.8-1.4,1.5-2.1c2-2.4,4.5-4.5,6.9-6.5l2.3-1.9
	c2.1-1.8,4.3-3.6,6.3-5.5c0.2-0.2,0.4-0.4,0.6-0.6c0.3,0.9,0.6,1.7,0.9,2.6c0.6,1.8,1.2,3.6,1.7,5.4c0.6,2.2,1.1,4.5,1.5,6.8
	c0.7,4.5,0.9,9,0.9,13.6c-0.1,4.6-0.5,9.2-1,13.9c0,0,0,0.1,0,0.1c0,0.1,0,0.1,0,0.2v0c-0.1,0.8-0.2,1.6-0.2,2.4c0,0.4,0,0.7,0.2,1
	c0.2,0.3,0.5,0.5,0.8,0.6s0.7,0,1-0.2c0.3-0.2,0.4-0.5,0.6-0.8c0,0,0,0,0-0.1c0.2-0.6,0.5-1.2,0.8-1.7c0.2-0.5,0.5-1,0.8-1.4
	c0.7-0.9,1.4-1.8,2.3-2.5c1.6-1.3,3.4-2.3,5.3-3.2c3.9-1.8,8-3,11.6-5.3c1.8-1.1,3.4-2.5,4.6-4.2c0.6-0.9,1.2-1.8,1.6-2.8
	c0.5-1.2,0.8-2.4,1-3.7c0.8-4.9-0.4-9.9-2.5-14.4c-0.1-0.2-0.2-0.4-0.3-0.5c4.4,3.2,8.9,6.2,13.5,9c8.2,4.8,16.9,8.8,25.9,12
	c8.8,3.1,17.9,5.4,27.2,6.8c9.5,1.5,19.1,2,28.7,1.7c2.2-0.1,4.3-0.2,6.5-0.4c-0.3,0.2-0.6,0.3-0.9,0.5c-4.1,2.7-7.8,6.2-9.8,10.8
	c-0.5,1.2-0.9,2.4-1.1,3.7c-0.2,1-0.2,2.1-0.2,3.2c0.1,2.1,0.7,4.1,1.6,6c1.8,3.8,4.6,7.1,6.9,10.7c1.1,1.8,2.1,3.6,2.7,5.6
	c0.3,1.1,0.5,2.2,0.6,3.3c0,0.5,0,1.1,0,1.6c0,0.6-0.2,1.2-0.3,1.9c0,0,0,0,0,0.1c-0.1,0.3-0.1,0.6,0,1c0.1,0.3,0.4,0.6,0.7,0.7
	c0.3,0.1,0.7,0.1,1,0c0.3-0.1,0.5-0.4,0.7-0.7c0.4-0.7,0.7-1.4,1.1-2.1c0,0,0,0,0,0c0,0,0.1-0.1,0.1-0.2c0,0,0-0.1,0-0.1
	c0,0,0,0,0,0c2.1-4.1,4.2-8.2,6.6-12.2c2.4-3.9,5-7.6,8-11c1.6-1.7,3.2-3.3,4.9-4.9c1.4-1.2,2.9-2.4,4.4-3.6
	c0.7-0.6,1.4-1.1,2.1-1.7c0.1,0.3,0.1,0.6,0.2,0.8c0.7,2.7,1.6,5.4,2.4,8l0.9,2.8c0.9,3,1.9,6.1,2.3,9.2c0.1,1,0.1,1.8,0.1,2.6
	c0,0.2,0,0.4,0.1,0.6c0.2,0.3,0.5,0.5,0.9,0.6c0.4,0,0.7-0.1,0.9-0.3c0.8-0.9,1.5-1.8,2.3-2.7c3.2-3.9,6.5-8.2,9.3-12.8
	c2-3.3,4.3-7.7,4.9-12.6c0.3-2.1,0.1-4.1-0.4-5.8c-0.3-1-0.7-2-1.2-2.9c-0.5-0.9-1.1-1.7-1.8-2.5c-1.6-1.7-3.6-3.1-5.9-4.1
	c-0.9-0.4-1.8-0.8-2.7-1.1c-0.1-0.6-0.2-1.1-0.3-1.7c1.7-0.7,3.5-1.4,5.2-2.1c0.2,0.1,0.4,0.3,0.7,0.4c0.6,0.3,1.2,0.6,1.8,0.9
	c0,0,0.1,0,0.1,0c0.5,1,1,1.9,1.7,2.8c1.3,2,2.8,3.8,4.7,5.3c1.7,1.3,3.5,2.4,5.5,3.2c1.9,0.7,3.9,1.1,6,1.2
	c3.1,0.2,6.2-0.2,9.3-0.8c3.4-0.7,6.6-1.8,9.8-3c6.7-2.5,13.2-5.6,19.8-8.2c2.4-1,4.9-1.9,7.4-2.7c2.2-0.7,4.5-1.2,6.8-1.5
	c0.1,0,0.3,0,0.4,0c0.4,0,0.8-0.3,0.8-0.7c0-0.1,0-0.3-0.1-0.4c-0.1-0.2-0.4-0.4-0.6-0.4c-0.5,0-1-0.1-1.5-0.1
	c-1.5-0.2-3-0.7-4.4-1.2c-1.6-0.7-3.1-1.7-4.5-2.8c-1.8-1.4-3.4-3-5.1-4.6c-1.7-1.6-3.4-3.1-5.3-4.3c-2-1.3-4.3-2.2-6.6-2.6
	c-2.7-0.5-5.5-0.4-8.2,0.1c-3.3,0.6-6.4,1.8-9.5,3.2c5.2-3.7,10.1-7.7,14.8-12c0.2,0.1,0.4,0.2,0.7,0.2v0l0.2,0.1
	c3.4,4.1,7.7,7.1,12.5,8.7c2.4,0.8,4.9,1.2,7.5,1.4c1.4,0.1,2.8,0.1,4.1,0.1c1.3,0,2.6-0.2,3.9-0.3c0.3,0,0.6-0.1,0.9-0.4
	c0.2-0.2,0.4-0.6,0.4-0.9c0-0.2-0.1-0.4-0.2-0.6c0-0.1-0.1-0.2-0.2-0.3c-0.1-0.1-0.3-0.3-0.6-0.3l-0.4-0.1c-0.3-0.1-0.5-0.2-0.8-0.3
	c-0.8-0.3-1.5-0.8-2.2-1.3c-1-0.8-2-1.9-3.1-3.1l0.2,0.2c-0.8-1.1-1.6-2.2-2.3-3.3c-0.5-0.8-1-1.6-1.6-2.3c-0.7-0.9-1.3-1.9-2.2-2.7
	c-0.8-0.8-1.6-1.5-2.4-1.9c-1-0.6-2-0.9-3.1-1c-0.5,0-1,0-1.5,0c1.1-1,2.3-2,3.4-3c6.7-6.2,12.7-13.1,18.2-20.4
	c11.2-15,19.5-32.2,24.5-50.3c2.5-9.1,4.1-18.4,4.9-27.8c0.8-9.3,0.7-18.8-0.3-28.1c-0.8-7.1-2-14.1-3.7-21.1c0.7,0,1.4-0.1,2.2-0.3
	c1.1-0.3,2.2-0.7,3.3-1.1c0.9-0.3,1.7-0.7,2.6-1.1c1.2-0.5,2.5-1.1,3.7-1.5l-0.2,0c1.6-0.5,2.9-0.8,4.3-0.9c0.9,0,1.7,0,2.6,0.1
	c0.3,0,0.6,0.1,0.8,0.2l0.4,0.1c0.2,0,0.4,0.1,0.7,0c0.1,0,0.2-0.1,0.3-0.1c0.2-0.1,0.4-0.2,0.5-0.4c0.2-0.3,0.2-0.6,0.2-1
	c-0.1-0.4-0.3-0.6-0.6-0.8c-1-0.8-2-1.6-3.1-2.4c-1.1-0.8-2.2-1.5-3.5-2.1c-2.3-1.2-4.7-2.2-7.1-2.9c-2.1-0.6-4.4-0.9-6.6-0.9
	c-1.6,0-3.3,0.2-4.9,0.5c-1.1-3-2.3-6-3.5-8.9c1.8,1.5,3.8,2.9,6,3.8c2.2,1,4.6,1.4,7,1.4c2.3,0,4.5-0.3,6.8-0.8
	c2.3-0.4,4.5-0.9,6.8-1.1c1.8-0.1,3.5-0.1,5.3,0.1c1.5,0.3,3,0.7,4.4,1.3c0.5,0.2,0.9,0.4,1.3,0.7c0.2,0.1,0.5,0.1,0.7,0
	c0.1,0,0.2-0.1,0.3-0.3C373.8,155.8,373.6,155.4,373.3,155.1z M360.2,141.5c-0.6-0.1-1.3-0.3-1.9-0.5c-0.9-0.2-1.9-0.3-2.9-0.3
	c-3.4-3.1-6.6-6.2-10-9.3c0.2,0,0.3,0,0.5,0c0,0,0.1,0,0.1,0c0.9,0,1.8,0,2.8,0c0.9,0,1.8,0.2,2.7,0.4c0,0,0,0,0,0c0,0,0.1,0,0.1,0
	c0.9,0.2,1.7,0.5,2.5,0.8C356.1,135.5,358.1,138.5,360.2,141.5z M352.1,129.7c0.3,0.4,0.6,0.9,0.9,1.3c-0.4-0.1-0.8-0.3-1.2-0.4
	c-0.9-0.2-1.7-0.3-2.6-0.4c-1.6-0.2-3.3-0.1-4.9,0.1c-0.3-0.3-0.7-0.6-1-0.9c-3-2.7-6.1-5.1-9.3-7.5c0.6-0.1,1.1-0.3,1.7-0.4
	c0.9-0.2,1.8-0.3,2.7-0.3c0,0,0,0-0.1,0c1,0,1.9,0,2.9,0c1,0,2,0.2,3,0.4c0.6,0.1,1.3,0.3,1.9,0.5
	C348.2,124.5,350.2,127.1,352.1,129.7z M331.9,112.7c0.3,0,0.7,0,1,0c0.5,0,0.9,0,1.4,0.1c0,0,0,0,0.1,0c0,0,0.1,0,0.1,0
	c2.2,1,4.2,2.3,6.1,3.8c1.5,1.2,2.8,2.5,4.1,3.9c-0.5-0.1-1.1-0.2-1.6-0.3c-1.3-0.2-2.6-0.3-3.9-0.3c-2.2,0-4.4,0.4-6.5,1.1
	c-0.3-0.2-0.6-0.5-1-0.7c-2.4-1.7-5-3.1-7.7-4.3c0.4-0.3,0.8-0.7,1.3-1c0,0,0,0,0,0c0,0,0,0,0.1,0c0,0,0,0,0.1,0l0,0
	c0.5-0.3,0.9-0.6,1.5-0.8c0.6-0.3,1.2-0.6,1.9-0.8c0.5-0.2,1.1-0.3,1.6-0.4C330.7,112.8,331.3,112.7,331.9,112.7z M320.1,112.5
	c1.8-0.6,3.5-1.1,5.4-1.3c1.5-0.1,3-0.1,4.4,0.1c0.2,0,0.5,0.1,0.8,0.2c-1,0.1-2,0.3-3,0.6c-1.1,0.4-2.2,0.9-3.2,1.5
	c-0.8,0.5-1.5,1-2.2,1.6c-1-0.4-2-0.8-3-1c-0.6-0.2-1.3-0.3-1.9-0.5C318.3,113.3,319.2,112.9,320.1,112.5z M322.4,119.9
	c0.1,0,0.2,0.1,0.3,0.1c-0.4,2.1-0.3,4.3,0,6.5c-0.9-1.6-1.9-3.2-2.9-4.8c-0.9-1.4-2-2.7-3.1-3.9
	C318.6,118.4,320.5,119.1,322.4,119.9z M310.6,121.8c2.8,3.6,5.3,7.4,7.7,11.3c-0.7,0.2-1.3,0.4-1.9,0.6c-0.6,0-1.1,0-1.7,0
	c-1.2-2.4-2.5-4.9-3.8-7.2c-3.7-6.6-8-12.8-12.6-18.8C302.6,112.1,306.7,116.9,310.6,121.8z M308.2,82.5c0.3,0.9,0.7,1.8,1,2.7
	c-1.6,1.6-3.3,3.5-4.7,5.7c-0.7,1.1-1.3,2.3-1.7,3.5c-0.4-1-0.9-2.1-1.3-3.1c0.2-0.2,0.4-0.3,0.6-0.5c0.5-0.5,1-1,1.4-1.5
	c0.8-1,1.5-2,2.1-3.1c0.9-1.7,1.6-3.5,2-5.3C307.8,81.4,308,81.9,308.2,82.5z M304.4,68.8c0.4,2.5,1,5,1.7,7.5
	c0.2,0.8,0.5,1.7,0.8,2.5c-0.2,1-0.5,2-0.8,3l0,0c-0.7,1.6-1.5,3.2-2.5,4.7c-0.5,0.7-1,1.3-1.6,1.9c-0.4,0.4-0.9,0.8-1.3,1.2
	c-1.7-4.2-3.4-8.5-4.2-13c0-0.3,0-0.6-0.1-0.8c0.2-0.1,0.4-0.2,0.6-0.3c0.2-0.1,0.3-0.2,0.5-0.3c0.5-0.3,0.9-0.6,1.4-1
	c0.9-0.8,1.7-1.7,2.5-2.6c1-1.3,1.9-2.8,2.7-4.3C304.2,67.7,304.3,68.3,304.4,68.8z M303.9,65.1c-0.6,1.2-1.3,2.4-2.1,3.6
	c-0.4,0.6-0.9,1.1-1.3,1.7c-0.5,0.5-1,1-1.5,1.5c-0.5,0.4-1.1,0.8-1.7,1.1c-0.3,0.2-0.6,0.3-0.9,0.5c-0.1-1.5-0.1-3,0-4.5
	c0.2-2.2,0.8-4.3,1.5-6.3c0.5-1.2,1-2.4,1.6-3.6c0.8-0.1,1.6-0.2,2.5-0.4c0.6-0.1,1.1-0.3,1.6-0.4C303.5,60.5,303.6,62.8,303.9,65.1
	z M303.7,48.6c0-0.1,0-0.2,0-0.3c-0.1,1.9-0.2,3.8-0.3,5.7c0,1,0,2,0,3c-0.3,0.1-0.5,0.2-0.8,0.3c-0.6,0.2-1.3,0.3-1.9,0.4
	c-0.3,0-0.6,0.1-0.9,0.1c0.7-1.5,1.4-3,2.1-4.5C302.6,51.8,303.2,50.2,303.7,48.6z M299.3,48.2c1.2-0.7,2.3-1.6,3.3-2.5
	c-0.2,1.4-0.6,2.8-1.1,4.1c-0.9,2.4-2.2,4.7-3.4,6.9c0-0.1,0-0.1-0.1-0.2c-0.2-0.7-0.4-1.5-0.5-2.2c0,0,0,0,0,0
	c-0.1-0.8-0.2-1.6-0.3-2.4c-0.1-0.9-0.1-1.8-0.1-2.6C297.9,49,298.6,48.6,299.3,48.2z M288.5,53.2c2.5-1.2,5.1-2.1,7.6-3.3
	c0,0.6,0,1.2,0.1,1.7c0.1,0.9,0.2,1.9,0.3,2.8c0.1,0.7,0.3,1.4,0.5,2.1c0.1,0.5,0.4,1,0.6,1.5c-0.7,1.2-1.3,2.5-1.9,3.8
	c-0.9,2-1.7,4.1-2.1,6.3c-0.3-0.3-0.7-0.5-1-0.9c-0.5-0.4-0.9-0.9-1.3-1.4c-0.6-0.7-1.1-1.5-1.6-2.3c-0.5-0.8-0.9-1.6-1.3-2.4
	c-0.9-2.1-1.7-4.3-2.3-6.5c0,0,0,0,0-0.1C286.8,54,287.6,53.6,288.5,53.2z M279.6,69.8c-0.3-1.8-0.4-3.5-0.2-5.3
	c0.1-1.2,0.4-2.3,0.8-3.5c0.3-0.9,0.8-1.7,1.3-2.4c0.7-0.9,1.4-1.7,2.2-2.4c0.5-0.4,1-0.7,1.5-1c0.4,1.3,0.8,2.7,1.2,4
	c0.5,1.4,1,2.8,1.7,4.1c0.7,1.4,1.4,2.7,2.4,3.9c0.5,0.6,1,1.1,1.5,1.7c0.4,0.4,0.9,0.7,1.3,1c-0.2,2-0.2,4.1,0,6.2
	c0,0.6,0.2,1.1,0.3,1.7c-0.3,0-0.6,0.1-0.9,0.1c-0.8,0-1.6,0-2.4,0c-0.7-0.1-1.4-0.2-2.2-0.3c-0.7-0.2-1.4-0.4-2.1-0.7
	c-1.8-0.7-3.4-1.6-4.9-2.6C280.3,72.7,279.9,71.3,279.6,69.8z M281.7,76.4c0-0.1-0.1-0.2-0.1-0.3c1.7,1,3.4,2,5.3,2.7
	c1.3,0.5,2.7,0.8,4.1,1c0.9,0.1,1.8,0,2.7-0.1c0.8,3.8,2.1,7.5,3.5,11.1c0.9,2.3,1.9,4.7,2.8,7c0.2,0.6,0.5,1.2,0.7,1.9
	c-3.8-3.4-7.5-7-10.8-10.9C286.8,85,283.9,80.9,281.7,76.4z M233.2,69.7c6.1,1.7,12.2,3.8,18,6.2c0,0,0.1,0,0.1,0c0,0,0,0,0,0
	c0.1,0,0.2,0.1,0.2,0.1s0.1,0,0.2,0.1c0,0-0.1,0-0.1,0c0.2,0.1,0.4,0.2,0.6,0.2c1.1,0.5,2.1,0.9,3.2,1.4c4.6,2.8,9.1,5.8,13.4,9.1
	c0,0,0,0,0,0l0,0c9.9,7.8,18.8,16.7,26.5,26.7c-0.1-0.1-0.2-0.2-0.2-0.3c0.1,0.1,0.2,0.2,0.3,0.3c0,0,0,0,0,0
	c3.8,5,7.4,10.3,10.6,15.8c1,1.7,1.9,3.4,2.8,5.1c-0.2,0-0.4,0.1-0.6,0.2c-6.8-9.8-14.8-18.7-23.7-26.7
	c-13.5-12-29.2-21.4-46.1-27.8c-17.1-6.6-35.4-9.8-53.6-9.8c-0.5,0-1.1,0-1.6,0c-17.4,0.2-34.8,3.5-51.1,9.7
	c-2.1,0.8-4.2,1.6-6.2,2.5c-0.3,0.1-0.6,0.2-0.8,0.4c0,0-0.1-0.1-0.1-0.2c4.4-2.4,9-4.6,13.7-6.6c0,0,0.1,0,0.2-0.1c0,0,0,0-0.1,0
	c12-5,24.7-8.5,37.6-10.3c6.2-0.8,12.4-1.2,18.6-1.2c6.6,0,13.2,0.4,19.7,1.3C220.7,66.7,227,68,233.2,69.7z M176.8,46.1
	c-2.6,1.7-5.4,3-8.3,4.1c-5.3,0.4-10.6,1-15.9,2c1.1-0.8,2.2-1.6,3.4-2.4c3.1-2.3,6.2-4.7,8.9-7.5c0.7,0.6,1.4,1.1,2.3,1.6
	c1.3,0.6,2.6,1.1,3.9,1.4c1.9,0.5,3.9,0.6,5.9,0.6C176.9,46,176.8,46.1,176.8,46.1z M186.1,28.1c0.3,1,0.5,2.1,0.6,3.2
	c0,0.9-0.1,1.8-0.3,2.7c-0.3,1.1-0.7,2.3-1.2,3.3c-0.9,1.6-1.9,3-3.1,4.3c-1,1.1-2.2,2-3.4,3c-1.9,0-3.7-0.1-5.6-0.5
	c-0.7-0.2-1.5-0.4-2.2-0.6c-0.7-0.2-1.4-0.5-2-0.9c-0.7-0.4-1.4-0.8-2-1.3c-0.3-0.2-0.5-0.4-0.8-0.6c0.4-0.4,0.8-0.8,1.1-1.3
	c1.3-1.6,2.4-3.3,3.3-5.2c0.6,0,1.1,0,1.7-0.1c0.7-0.1,1.5-0.3,2.2-0.6c1.4-0.5,2.8-1.2,4.1-2c1.3-0.8,2.5-1.6,3.6-2.6
	c1.1-0.9,2.2-1.8,3.2-2.7C185.6,27,185.9,27.5,186.1,28.1z M174.3,13c0.3-1.4,0.8-2.7,1.3-4c0.3,1.3,0.8,2.6,1.4,3.9
	c0.4,0.8,0.8,1.5,1.2,2.2c-0.5,0.7-1,1.4-1.5,2.1c-0.5,0.6-1,1.2-1.5,1.8c0,0,0,0,0,0c-0.5,0.6-1.1,1.1-1.7,1.6c0,0-0.1,0.1-0.2,0.1
	C173.6,18.1,173.8,15.5,174.3,13z M174.7,21.1c0.5-0.5,1-1,1.5-1.5c0.6-0.7,1.2-1.4,1.8-2.1c0.3-0.5,0.7-1,1-1.4
	c1.5,2.3,3.1,4.5,4.6,6.9c0.5,0.8,1,1.6,1.4,2.5c0,0-0.1,0-0.1,0c-1.8,1.5-3.6,2.9-5.4,4.2c-0.8,0.5-1.6,1-2.4,1.4
	c-0.8,0.4-1.7,0.8-2.5,1.1c-0.6,0.2-1.2,0.4-1.9,0.5c-0.4,0.1-0.9,0.1-1.3,0.2c0.8-2,1.3-4.2,1.6-6.4c0.2-1.4,0.3-2.8,0.4-4.2
	C173.8,21.8,174.2,21.5,174.7,21.1z M170.5,15.6c1-1.6,1.9-3.3,2.8-5c0,0.1-0.1,0.2-0.1,0.3c-0.5,1.6-0.8,3.2-1.1,4.9
	c-0.3,1.6-0.5,3.3-0.7,5c-0.2-0.2-0.5-0.4-0.7-0.6c-0.5-0.4-0.9-0.9-1.4-1.4c-0.2-0.2-0.3-0.4-0.5-0.6
	C169.5,17.2,170,16.4,170.5,15.6z M164.2,24.6c1.5-1.8,2.8-3.7,4.1-5.7c0.4,0.4,0.7,0.9,1.1,1.3c0.6,0.6,1.2,1.1,1.9,1.7
	c-0.2,1.3-0.4,2.6-0.7,3.9c-0.5,2.1-1.1,4.2-2.1,6.2c-0.7,1.3-1.6,2.6-2.5,3.8c-0.2-0.3-0.4-0.6-0.5-0.9c-0.3-0.6-0.6-1.2-0.8-1.9
	c-0.2-0.7-0.4-1.4-0.5-2.1c-0.1-0.7-0.2-1.4-0.2-2.2C164,27.4,164.1,26,164.2,24.6z M153.4,37.5c0.2-1,0.5-2,0.9-3
	c0.7-0.6,1.3-1.1,2-1.7c1.9-1.7,3.8-3.5,5.5-5.4c0.4-0.4,0.7-0.9,1.1-1.3c-0.2,1.7-0.3,3.4-0.1,5.1c0.1,1.2,0.3,2.4,0.7,3.6
	c0.2,0.5,0.4,1.1,0.6,1.6c0.1,0.2,0.2,0.3,0.3,0.5c0.1,0.2,0.2,0.4,0.4,0.6c-0.2,0.2-0.3,0.4-0.5,0.7c-3.1,3.3-6.8,6.1-10.5,8.7
	c-0.2-0.6-0.3-1.1-0.4-1.7c-0.1-0.8-0.2-1.6-0.3-2.4C152.9,41,153,39.2,153.4,37.5z M151.3,36.9c0.5-0.3,0.9-0.7,1.4-1
	c-0.6,1.8-1,3.7-1.1,5.6c-0.1,1.2-0.1,2.5,0.1,3.7c0.1,0.7,0.2,1.4,0.3,2.1c0.1,0.2,0.1,0.5,0.2,0.8c-0.9,0.7-1.8,1.3-2.8,2
	c0.3-1.2,0.5-2.5,0.5-3.9c0-2.6-0.4-5.1-0.9-7.4C149.7,38.1,150.5,37.5,151.3,36.9z M130,65c0.1,0.1,0.3,0.1,0.5,0.1
	c0.2,0,0.4-0.2,0.5-0.5c0.1,0,0.2-0.1,0.3-0.1c0.6,0.1,1.1-0.1,1.5-0.5c8.7-3,17.7-5.1,26.9-6.4c12.9-1.7,26-1.7,39,0
	c6.2,0.9,12.4,2.1,18.4,3.7c-3.8-0.5-7.6-0.9-11.4-1.2c-3-0.2-6-0.3-9-0.3c-6.2,0-12.4,0.4-18.6,1.1c-9.3,1.1-18.5,3.1-27.5,5.9
	c-8.9,2.8-17.5,6.5-25.8,10.9c-1,0.5-1.9,1.1-2.9,1.7c-1.2-1.2-2.5-2.2-3.8-3c-0.6-1.6-1.1-3.2-1.7-4.9c-0.1-0.2-0.2-0.4-0.4-0.6
	c2.2-1.1,4.5-2.1,6.7-3.1C125.2,66.8,127.6,65.9,130,65z M115.1,64.1c-0.2,0.1-0.5,0.2-0.7,0.3c-7.6,3.6-15,7.9-21.9,12.7
	c-0.3,0.1-0.7,0.1-1,0.2c3.1-1.9,6-4.2,8.7-6.8c3.1-3,5.8-6.4,7.5-10.4c3.1,0,6.2,0,9.2,0.4c-0.1,0.4-0.3,0.7-0.4,1.1
	C116.1,62.4,115.6,63.3,115.1,64.1z M117.7,62.9c0.4-0.7,0.8-1.4,1.1-2.2c0.1,0,0.2,0,0.3,0c0.8,0.1,1.7,0.3,2.5,0.5
	C120.3,61.7,119,62.3,117.7,62.9z M117.3,49.5c1.4,0.6,2.6,1.4,3.8,2.3c1.5,1.1,2.7,2.5,3.9,4c0.6,0.8,1.1,1.6,1.6,2.5
	c-0.6-0.2-1.2-0.4-1.9-0.6c-1-0.3-2-0.5-3.1-0.7c-0.2-0.9-0.6-1.7-1-2.5c-0.6-1.1-1.2-2-1.9-3c-0.6-0.8-1.4-1.5-2.2-2.1
	C116.8,49.3,117.1,49.4,117.3,49.5z M105.6,48.1c2.4-0.3,4.8-0.3,7.2,0c0,0,0.1,0,0.1,0c0,0,0,0,0.1,0c0.4,0.2,0.9,0.4,1.3,0.7
	c0.3,0.2,0.6,0.4,0.8,0.6c0.5,0.3,0.9,0.7,1.3,1.1c0.4,0.4,0.8,0.8,1.1,1.2c0.4,0.5,0.8,1.1,1.2,1.7c0.3,0.5,0.5,1,0.8,1.5
	c0,0,0,0,0-0.1c0,0,0,0.1,0,0.1c0,0,0,0,0,0.1c0.2,0.5,0.3,1,0.5,1.5c-2.9-0.5-5.9-0.6-8.8-0.6c-0.4,0-0.8,0-1.2,0
	c-1.4-1.7-3-3.2-4.9-4.4c-1.1-0.7-2.3-1.4-3.5-1.9c-0.5-0.2-1.1-0.4-1.7-0.6C101.8,48.7,103.7,48.4,105.6,48.1z M88.7,53
	c3-1.2,6.1-2.3,9.3-3.2c0.6,0.2,1.3,0.4,1.9,0.6c0.9,0.4,1.9,0.8,2.7,1.3c0.8,0.5,1.6,1,2.4,1.6c0,0,0,0,0,0
	c0.7,0.6,1.5,1.1,2.1,1.8c0.4,0.4,0.8,0.8,1.1,1.2c-4,0.2-7.9,0.7-11.8,1.3c-0.4,0.1-0.9,0.2-1.3,0.2c-1.3-1-2.6-2-4.1-2.7
	c-0.8-0.4-1.6-0.8-2.4-1.1c-0.4-0.1-0.8-0.2-1.3-0.4C87.8,53.4,88.3,53.2,88.7,53z M85.7,54.3c0.9,0.2,1.7,0.4,2.5,0.7h0
	c0,0,0,0,0.1,0c0.9,0.3,1.7,0.7,2.5,1.1c0.8,0.4,1.6,0.9,2.4,1.5c0,0,0,0,0,0c0,0,0.1,0,0.1,0.1c0.1,0.1,0.3,0.2,0.4,0.3
	c-4.5,0.8-9,1.6-13.4,2.5c-0.9-0.5-1.7-0.9-2.6-1.3c-0.6-0.2-1.2-0.5-1.9-0.7C79.1,57.1,82.4,55.7,85.7,54.3z M72.4,59.9
	c0.6-0.2,1.2-0.5,1.8-0.8c0,0,0,0,0,0c0.7,0.2,1.4,0.5,2.1,0.7c0.7,0.3,1.3,0.6,1.9,0.9c-3.4,0.6-6.8,1.2-10.2,1.6
	c-1.1,0.1-2.2,0.2-3.3,0.3C67.4,61.8,70,60.9,72.4,59.9z M68.5,67.1c-0.2-0.1-0.3-0.3-0.5-0.4c-1.3-1-2.8-1.8-4.3-2.4
	c3.5-0.1,6.9-0.4,10.4-0.8c-0.2,0.1-0.3,0.3-0.5,0.5c-0.5,0.4-1.1,0.9-1.6,1.2c-0.6,0.4-1.1,0.7-1.7,1c-0.5,0.2-1,0.5-1.6,0.7
	C68.6,66.9,68.5,67,68.5,67.1z M74.9,72.4c-1.9-1.5-3.6-3.1-5.5-4.6c0.7-0.3,1.4-0.6,2-0.9c0.5-0.3,1-0.6,1.5-1
	c0.6-0.4,1.1-0.8,1.7-1.3c0.5-0.4,0.9-0.9,1.4-1.3c4.5-0.5,9-1.2,13.5-1.7c-0.1,0.1-0.1,0.2-0.2,0.3c-0.4,0.5-0.8,1-1.2,1.5
	c0,0,0,0,0,0c0,0-0.1,0.1-0.1,0.1c-1,1.1-2,2.1-3.1,3.1c-1,0.9-2.2,1.8-3.3,2.5c-1.8,1.2-3.8,2.3-5.9,3
	C75.6,72.2,75.3,72.3,74.9,72.4z M84.6,77.5c-1.3-0.2-2.6-0.6-3.9-1.1c-1.7-0.8-3.3-1.8-4.7-3c0,0-0.1-0.1-0.1-0.1
	c1.4-0.5,2.7-1,4-1.7c1.6-0.9,3.2-1.8,4.7-2.9c2.7-2,5.3-4.5,7.1-7.4c0.3,0,0.7-0.1,1-0.1c0,0-0.1,0-0.2,0c4.3-0.5,8.7-0.9,13-1.1
	c-0.7,1.3-1.4,2.6-2.2,3.8c-0.9,1.4-1.9,2.7-3,4c-1.3,1.5-2.7,3-4.2,4.3c-1.4,1.3-2.9,2.4-4.5,3.5c0,0,0,0,0,0c-1,0.7-2,1.3-3.1,1.9
	C87.3,77.7,86,77.7,84.6,77.5z M37.5,185.2c-1.7,6.9-2.9,13.9-3.7,21c-0.1-7.5,0.3-15,1.2-22.4c1.8-13.3,5.3-26.2,10.5-38.6
	c4.9-11.4,11.2-22.2,18.7-32c6.8-8.8,14.6-16.6,23.1-23.7c0.2-0.2,0.5-0.3,0.7-0.5l0,0c0.9-0.7,1.7-1.4,2.6-2.1
	c-0.2,0.1-0.3,0.2-0.5,0.4c0.2-0.1,0.4-0.3,0.6-0.5c0,0,0,0,0,0c6.8-5.2,14-9.8,21.5-13.7c0.3,1.1,0.6,2.2,0.8,3.3
	c0.1,0.6,0.1,1.3,0.1,1.9c-1.8,1.4-3.5,2.8-4.9,4.4c-2.9,3.2-5.4,7-7.3,11.3c-4,3.2-7.8,6.7-11.4,10.3c-3.6,2.9-7.1,5.9-10.4,9.1
	c-6.6,6.3-12.6,13.3-17.9,20.8c-1.3,1.9-2.7,3.8-3.9,5.7c-1.4,2.1-2.7,4.3-4,6.4c-2.4,4.1-4.5,8.3-6.5,12.5
	C42.9,167.3,39.8,176.1,37.5,185.2z M79,120.2c0,0,0,0.1-0.1,0.1C78.9,120.3,78.9,120.2,79,120.2C79,120.2,79,120.2,79,120.2z
	 M42.5,252.8c-0.9-4.3-1.8-8.6-2.3-13c-0.8-6.4-1.2-12.8-1.2-19.2c0-6.5,0.4-13,1.2-19.4c0.9-6.7,2.2-13.2,3.9-19.6
	c1.7-6.4,3.9-12.7,6.4-18.9c2.5-5.9,5.4-11.7,8.6-17.2c2.4-4.1,4.9-8,7.7-11.8c-0.2,0.4-0.5,0.8-0.7,1.2
	c-4.5,7.7-8.2,15.8-11.3,24.2c-3.1,8.5-5.5,17.3-7.1,26.2c-1.6,9-2.3,18.1-2.2,27.2c0.1,9.3,1.1,18.7,2.9,27.9
	c0.5,2.7,1.1,5.3,1.8,7.9c0.2,0.9,0.4,1.8,0.7,2.7c1,3.7,2.1,7.4,3.4,11c-0.1,0.8-0.3,1.6-0.4,2.3c-0.7,4.4-0.7,8.7,0,12.8
	c-3.2-5.4-6-11-8.4-16.8l-0.1-0.3c0-0.1-0.1-0.2-0.1-0.3c0,0,0,0.1,0.1,0.1C44.2,257.5,43.3,255.2,42.5,252.8z M38.9,275
	c0.9,1,1.7,2,2.4,3c3,4.3,5.4,9.1,7.9,13.8c0.1,0.6,0.2,1.2,0.3,1.8c0,0,0,0,0,0c0,0,0,0.1,0,0.1c0,0,0,0,0,0c0.1,1,0.2,2,0.2,3.1
	c0,1,0,2-0.1,3.1c0,0.4-0.1,0.8-0.2,1.1c-2.7-1.4-5.4-3-7.9-4.6c0.7-4.3,0.2-8.7-0.8-12.9c-0.8-3.5-2-7-3.6-10.2
	C37.7,273.9,38.3,274.4,38.9,275z M21.8,268.1c1.9-0.2,3.7-0.2,5.6,0c1.3,0.2,2.6,0.6,3.9,1.1c1.2,0.6,2.4,1.3,3.5,2.1
	c0.6,1,1.1,2.1,1.6,3.2c0.7,1.7,1.4,3.5,1.9,5.3c0.5,1.9,0.9,3.9,1.2,5.9c0.2,1.7,0.3,3.3,0.4,5c0,1.5-0.1,2.9-0.2,4.4
	c-3.5-2.5-6.9-5.1-10.3-7.8c-0.3-0.2-0.5-0.4-0.8-0.7c0-3.5-0.8-6.9-2-10.1c-0.7-1.7-1.5-3.4-2.4-5c-0.7-1.3-1.6-2.4-2.5-3.6
	C21.7,268.1,21.8,268.1,21.8,268.1C21.8,268.1,21.8,268.1,21.8,268.1z M20.4,268.3c0.2,0.3,0.4,0.5,0.6,0.8c1.4,1.8,2.5,3.7,3.4,5.8
	c0.5,1.3,1,2.6,1.4,3.9c0.4,1.4,0.7,2.8,0.9,4.3c0,0,0,0,0,0c0,0,0,0.1,0,0.2c0,0,0,0,0,0c0.1,0.6,0.1,1.2,0.2,1.9
	c0,0.1,0,0.2,0,0.4c-3.5-2.9-7-5.9-10.5-8.8c-0.2-0.6-0.3-1.2-0.5-1.8c-0.2-0.7-0.4-1.3-0.7-2c-0.2-0.6-0.5-1.1-0.8-1.7
	c-0.3-0.7-0.7-1.3-1.2-1.9C15.7,269,18,268.6,20.4,268.3z M11.4,269.4c0.2,0,0.4,0,0.7,0c0,0.1,0,0.2,0,0.2c0.3,0.4,0.7,0.9,1,1.4
	c0.3,0.6,0.6,1.2,0.9,1.8c0.3,0.6,0.5,1.3,0.7,1.9c0.1,0.2,0.1,0.5,0.2,0.7c-2.7-2.2-5.4-4.3-8.3-6.2
	C8.2,269.4,9.8,269.4,11.4,269.4z M12.6,279.1c-0.4-0.5-0.7-1.1-1.1-1.6c-1.6-2.3-3.3-4.5-5.1-6.6c1,0.7,1.9,1.4,2.8,2.2
	c2.7,2.2,5.3,4.5,7.8,6.9c-0.7-0.1-1.5-0.2-2.2-0.3c0,0,0.1,0,0.1,0C14.2,279.5,13.4,279.3,12.6,279.1
	C12.6,279.1,12.6,279.1,12.6,279.1z M13.6,280.4c0.6,0.1,1.3,0.3,1.9,0.5c0.9,0.2,1.9,0.3,2.9,0.3c3.3,3.1,6.6,6.3,10,9.3
	c-0.2,0-0.3,0-0.5,0c0,0-0.1,0-0.1,0c-0.9,0-1.8,0-2.7,0c-0.9,0-1.8-0.2-2.7-0.4c0,0,0,0,0,0l-0.1,0c-0.9-0.2-1.7-0.5-2.5-0.8
	C17.6,286.5,15.6,283.5,13.6,280.4z M21.6,292.2c-0.3-0.4-0.6-0.9-0.9-1.3c0.4,0.1,0.8,0.3,1.2,0.4c0.9,0.2,1.7,0.3,2.6,0.4
	c1.6,0.2,3.3,0.1,4.9-0.1c0.3,0.3,0.7,0.6,1,0.9c3,2.7,6.1,5.1,9.3,7.5c-0.6,0.1-1.1,0.3-1.7,0.4c-0.9,0.2-1.8,0.3-2.7,0.3
	c0,0,0,0,0.1,0c-1,0-1.9,0-2.9,0c-1,0-2-0.2-3-0.4c-0.6-0.1-1.3-0.3-1.9-0.5C25.5,297.5,23.5,294.9,21.6,292.2z M41.9,309.3
	c-0.3,0-0.7,0-1,0c-0.5,0-0.9,0-1.4-0.1c0,0,0,0-0.1,0c-0.1,0-0.1,0-0.2-0.1c0,0,0,0,0.1,0c-2.2-1-4.2-2.3-6.1-3.8c0,0,0,0,0,0
	c-1.5-1.2-2.8-2.5-4.1-3.9c0.5,0.1,1.1,0.2,1.6,0.3c1.3,0.2,2.6,0.3,3.9,0.3c2.2,0,4.4-0.4,6.5-1.1c0.3,0.2,0.6,0.5,1,0.7
	c2.4,1.7,5,3.1,7.7,4.3c-0.4,0.3-0.8,0.7-1.3,1c0,0,0,0,0,0c0,0,0,0-0.1,0c0,0,0,0-0.1,0l0,0c-0.5,0.3-0.9,0.6-1.5,0.8
	c-0.6,0.3-1.2,0.6-1.9,0.8c-0.5,0.2-1.1,0.3-1.6,0.4C43,309.2,42.4,309.3,41.9,309.3z M53.6,309.4c-1.8,0.6-3.5,1.1-5.4,1.3
	c-1.5,0.1-3,0.1-4.4-0.1c-0.2,0-0.5-0.1-0.8-0.2c1-0.1,2-0.3,3-0.6c1.1-0.4,2.2-0.9,3.2-1.5c0.8-0.5,1.5-1,2.2-1.6c1,0.4,2,0.8,3,1
	c0.6,0.2,1.3,0.3,1.9,0.5C55.4,308.7,54.5,309.1,53.6,309.4z M51.3,302c-0.1,0-0.2-0.1-0.3-0.1c0.4-2.1,0.3-4.3,0-6.5
	c0.9,1.6,1.9,3.2,2.9,4.8c0.9,1.4,2,2.7,3.1,3.9C55.1,303.5,53.2,302.9,51.3,302z M55.4,256.6c-1.2-3.7-2.3-7.4-3.2-11.1
	c-1.1-4.6-1.9-9.3-2.6-14c-0.8-6.5-1.2-13-1.3-19.6c0-6.5,0.4-13,1.3-19.4c0.9-6.3,2.1-12.6,3.7-18.8c1.7-6.5,3.9-12.9,6.5-19.1
	c4.9-11.7,11.3-22.6,19-32.7l0,0c5.1-6.5,10.7-12.6,16.8-18.2c0.2-0.2,0.5-0.4,0.7-0.6c0.5-0.4,1-0.7,1.6-1.1
	c-0.5,1.6-0.9,3.2-1.4,4.9c-0.6,2.3-1.1,4.7-1.7,7.1c-1.5,6.7-3.1,13.6-5.8,20l0.1-0.3c-0.9,2-1.6,3.6-2.5,5c-0.2,0.3-0.2,0.8,0,1.1
	c0.2,0.4,0.8,0.7,1.2,0.5c1.1-0.3,2.2-0.6,3.4-1c1.2-0.4,2.3-0.7,3.5-1.1c2.8-1,5.1-1.8,7.2-2.6c5.8-2.3,10.1-4.5,13.8-7
	c2.5-1.7,4.5-3.3,6.2-4.9c2-2,3.7-4,4.9-6c1.5-2.3,2.5-4.8,3.2-7.2c0.7-2.6,1.1-5.2,1.1-7.8c0-5.4-1.2-10.8-3.6-15.6
	c-0.3-0.5-0.6-1.1-0.9-1.6c0-0.1-0.1-0.1-0.1-0.2c0.4-0.2,0.8-0.4,1.1-0.5c2.1-0.9,4.2-1.7,6.2-2.5c3.9-1.4,7.9-2.7,12-3.8
	c6.2-1.7,12.5-2.9,18.8-3.8c12.9-1.7,26.1-1.7,39,0c13.1,1.8,25.9,5.2,38,10.3c11.6,4.9,22.5,11.3,32.5,19
	c4.9,3.8,9.5,7.9,13.9,12.2c4.5,4.4,8.6,9.2,12.4,14.1c1.3,1.8,2.6,3.6,3.9,5.4c-0.6,0.3-1.2,0.5-1.8,0.8c-0.5,0.3-1.1,0.6-1.6,0.9
	c-4.6,2.7-8.5,6.6-11.4,11.2c-1.4,2.2-2.5,4.6-3.2,7.1c-0.8,2.4-1.1,5-1.2,7.8c0,2.4,0.3,5,0.9,7.7c0.5,2.3,1.4,4.7,2.5,7.5
	c1.8,4.1,4.2,8.2,7.9,13.4c1.3,1.8,2.8,3.7,4.6,6c0.8,1,1.6,1.9,2.3,2.8c0.8,1,1.5,1.8,2.3,2.7c0.3,0.4,0.9,0.4,1.3,0.2
	c0.4-0.2,0.6-0.5,0.6-0.9c0-1.6,0.2-3.4,0.6-5.5l-0.1,0.3c1.2-6.9,3.6-13.6,5.9-20c0.8-2.3,1.6-4.6,2.4-6.9c1.1-3.3,1.9-6.3,2.6-9.1
	c0.3,0.6,0.5,1.2,0.8,1.8c0,0,0,0,0,0c0.5,1.2,1,2.5,1.5,3.8c1.4,5.3,2.4,10.7,3.2,16.2c0,0,0,0.1,0,0.1c0.4,3.2,0.8,6.3,1,9.5
	c0.2,3.3,0.3,6.6,0.3,9.9c0,6.5-0.4,13-1.3,19.4c-1.8,13-5.2,25.7-10.3,37.8l0-0.1c0,0,0,0.1,0,0.1c0,0,0,0.1,0,0.1c0,0,0,0,0-0.1
	c0,0,0,0.1,0,0.1c-4.9,11.5-11.2,22.3-18.8,32.2c-3.9,5-8.1,9.9-12.7,14.4c-1.6,1.6-3.3,3.1-5,4.7c0.3-1.2,0.6-2.5,0.9-3.7
	c1.5-6.7,3.1-13.6,5.8-20l-0.1,0.3c0.9-2,1.6-3.6,2.5-5c0.2-0.3,0.2-0.8,0-1.1c-0.3-0.4-0.8-0.7-1.2-0.5c-1.1,0.3-2.2,0.6-3.4,1
	c-1.2,0.4-2.3,0.7-3.5,1.1c-2.8,1-5.1,1.8-7.2,2.6c-5.8,2.3-10.1,4.5-13.8,7c-2.5,1.7-4.5,3.3-6.2,4.9c-2,2-3.7,4-4.9,6
	c-1.5,2.3-2.5,4.8-3.2,7.2c-0.7,2.6-1.1,5.2-1.1,7.8c0,5.1,1,10.1,3.1,14.6c-3.1,1.6-6.2,3-9.4,4.4c-11.8,4.9-24.2,8.3-36.8,10
	c-13.1,1.7-26.3,1.7-39.4,0c-12.8-1.8-25.4-5.2-37.3-10.2c0.1,0,0.1,0.1,0.2,0.1c-0.1,0-0.2-0.1-0.3-0.1c0,0-0.1,0-0.1,0
	c-3-1.3-6-2.7-8.9-4.2c-2.8-1.9-5.6-3.8-8.2-5.9c-9.9-7.7-18.8-16.7-26.5-26.6c-3.6-4.8-7-9.8-10.1-15c0.7-0.3,1.5-0.6,2.2-1
	c0.5-0.3,1.1-0.6,1.6-0.9c4.6-2.7,8.5-6.6,11.4-11.2c1.4-2.2,2.5-4.6,3.2-7.1c0.8-2.4,1.1-5,1.2-7.8c0-2.4-0.3-5-0.9-7.7
	c-0.5-2.3-1.4-4.7-2.5-7.5c-1.8-4.1-4.2-8.2-7.9-13.4c-1.3-1.8-2.8-3.7-4.6-6c-0.8-1-1.6-1.9-2.3-2.8c-0.8-1-1.5-1.8-2.3-2.7
	c-0.3-0.4-0.9-0.4-1.3-0.2c-0.4,0.2-0.6,0.5-0.6,0.9c0,1.6-0.2,3.4-0.6,5.5l0.1-0.3c-1.2,6.9-3.6,13.6-5.9,20
	c-0.8,2.3-1.6,4.6-2.4,6.9C56.4,253,55.9,254.8,55.4,256.6z M258.4,355.8c-1.4,1.7-2.6,3.5-3.4,5.5c-0.1,0-0.2,0-0.3,0
	c-2-0.3-4-0.8-5.9-1.4c1.6-0.4,3.1-1,4.6-1.6C255,357.5,256.7,356.7,258.4,355.8z M88.1,317.1c-4.1-3.3-8.1-6.9-11.8-10.6
	c-4.4-4.4-8.5-9.1-12.3-14.1c-1-1.4-2-2.8-3-4.2c1.6-0.1,3.2-0.5,4.8-1c2.9,5.1,6.2,10.1,9.7,14.9C79.4,307.4,83.6,312.4,88.1,317.1
	z M65.6,339.5c-0.3-0.9-0.7-1.8-1-2.7c1.6-1.6,3.3-3.5,4.7-5.7c0.7-1.1,1.3-2.3,1.7-3.5c0.4,1,0.9,2.1,1.3,3.1
	c-0.2,0.2-0.4,0.3-0.6,0.5c-0.5,0.5-1,1-1.4,1.6c-0.8,1-1.5,2-2.1,3.1c-0.9,1.7-1.6,3.5-2,5.3C65.9,340.6,65.8,340,65.6,339.5z
	 M69.4,353.1c-0.4-2.5-1-5-1.7-7.5c-0.2-0.8-0.5-1.7-0.8-2.5c0.2-1,0.5-2,0.8-3l0,0c0.7-1.6,1.5-3.2,2.5-4.7c0.5-0.7,1-1.3,1.6-1.9
	c0.4-0.4,0.9-0.8,1.3-1.2c1.7,4.2,3.4,8.5,4.2,13c0,0.3,0,0.6,0.1,0.8c-0.2,0.1-0.4,0.2-0.6,0.3c-0.2,0.1-0.3,0.2-0.5,0.3
	c-0.5,0.3-0.9,0.6-1.4,1c-0.9,0.8-1.7,1.7-2.5,2.6c-1,1.3-1.9,2.8-2.7,4.3C69.5,354.3,69.5,353.7,69.4,353.1z M74.5,326.2
	c4.3,4.6,9,8.9,13.8,12.9c1.4,2,2.6,4.2,3.7,6.4c0,0.1,0.1,0.2,0.1,0.3c-1.7-1-3.4-2-5.3-2.7c-1.3-0.5-2.7-0.8-4.1-1
	c-0.9-0.1-1.8,0-2.7,0.1c-0.8-3.8-2.1-7.5-3.5-11.1C75.8,329.5,75.1,327.9,74.5,326.2z M69.9,356.8c0.6-1.2,1.3-2.4,2.1-3.6
	c0.4-0.6,0.9-1.1,1.3-1.7c0.5-0.5,1-1,1.5-1.5c0.5-0.4,1.1-0.8,1.7-1.1c0.3-0.2,0.6-0.3,0.9-0.5c0.1,1.5,0.1,3,0,4.5
	c-0.2,2.2-0.8,4.3-1.5,6.3c-0.5,1.2-1,2.4-1.6,3.6c-0.8,0.1-1.6,0.2-2.5,0.4c-0.6,0.1-1.1,0.3-1.6,0.4
	C70.3,361.4,70.1,359.1,69.9,356.8z M70.1,373.3c0,0.1,0,0.2,0,0.3c0.1-1.9,0.2-3.8,0.3-5.7c0-1,0-2,0-3c0.3-0.1,0.5-0.2,0.8-0.3
	c0.6-0.2,1.3-0.3,1.9-0.4c0.3,0,0.6-0.1,0.9-0.1c-0.7,1.5-1.4,3-2.1,4.5C71.1,370.2,70.5,371.7,70.1,373.3z M74.4,373.8
	c-1.2,0.7-2.3,1.5-3.3,2.5c0.2-1.4,0.6-2.8,1.1-4.1c0.9-2.4,2.2-4.7,3.4-6.9c0,0.1,0,0.1,0.1,0.2c0.2,0.7,0.4,1.5,0.5,2.2
	c0,0,0,0,0,0c0.1,0.8,0.2,1.6,0.3,2.4c0.1,0.9,0.1,1.8,0.1,2.6C75.8,373,75.1,373.4,74.4,373.8z M85.3,368.8
	c-2.5,1.1-5.1,2.1-7.6,3.3c0-0.6,0-1.2-0.1-1.7c-0.1-0.9-0.2-1.9-0.3-2.8c-0.1-0.7-0.3-1.4-0.5-2.1c-0.1-0.5-0.4-1-0.6-1.5
	c0.7-1.2,1.3-2.5,1.9-3.8c0.9-2,1.7-4.1,2.1-6.3c0.3,0.3,0.7,0.5,1,0.9c0.5,0.4,0.9,0.9,1.3,1.4c0.6,0.7,1.1,1.5,1.6,2.3
	c0.5,0.8,0.9,1.6,1.3,2.4c0.9,2.1,1.7,4.3,2.3,6.5c0,0,0,0,0,0.1C87,368,86.1,368.4,85.3,368.8z M94.4,357.5
	c-0.1,1.2-0.4,2.3-0.8,3.5c-0.3,0.9-0.8,1.7-1.3,2.4c-0.7,0.9-1.4,1.7-2.2,2.4c-0.5,0.4-1,0.7-1.5,1c-0.4-1.3-0.8-2.7-1.2-4
	c-0.5-1.4-1-2.8-1.7-4.1c-0.7-1.4-1.4-2.7-2.4-3.9c-0.5-0.6-1-1.1-1.5-1.7c-0.4-0.4-0.9-0.7-1.3-1c0.2-2,0.2-4.1,0-6.2
	c0-0.6-0.2-1.1-0.3-1.7c0.3,0,0.6-0.1,0.9-0.1c0.8,0,1.6,0,2.4,0c0.7,0.1,1.4,0.2,2.2,0.3c0.7,0.2,1.4,0.4,2.1,0.7
	c1.8,0.7,3.4,1.6,4.9,2.6c0.5,1.4,0.9,2.8,1.2,4.3C94.4,353.9,94.5,355.7,94.4,357.5z M187.6,393.9c-0.3-1.1-0.5-2.1-0.6-3.2
	c0-0.9,0.1-1.8,0.3-2.7c0.3-1.1,0.7-2.3,1.2-3.3c0.9-1.6,1.9-3,3.1-4.3c1-1.1,2.2-2,3.4-3c1.9,0,3.7,0.1,5.6,0.5
	c0.7,0.2,1.5,0.4,2.2,0.6c0.7,0.2,1.4,0.5,2,0.9c0.7,0.4,1.4,0.8,2,1.3c0.3,0.2,0.5,0.4,0.8,0.6c-0.4,0.4-0.8,0.8-1.1,1.3
	c-1.3,1.6-2.4,3.3-3.3,5.2c-0.6,0-1.1,0-1.7,0.1c-0.7,0.1-1.5,0.3-2.2,0.6c-1.4,0.5-2.8,1.2-4.1,2c-1.3,0.8-2.5,1.6-3.6,2.6
	c-1.1,0.9-2.2,1.8-3.2,2.7C188.1,395,187.8,394.5,187.6,393.9z M196.7,376c0.1,0,0.2-0.1,0.2-0.2c2.4-1.5,5-2.8,7.7-3.9
	c4.4-0.6,8.8-1.4,13.1-2.4c1.9-0.4,3.7-0.9,5.5-1.4c-1.8,1.3-3.7,2.7-5.5,4c-3.1,2.3-6.2,4.7-8.9,7.5c-0.7-0.6-1.4-1.1-2.3-1.6
	c-1.3-0.6-2.6-1.1-3.9-1.4C200.7,376.2,198.7,376.1,196.7,376z M199.4,409c-0.3,1.4-0.8,2.7-1.3,4c-0.4-1.3-0.8-2.6-1.4-3.9
	c-0.4-0.8-0.8-1.5-1.2-2.2c0.5-0.7,1-1.4,1.5-2.1c0.5-0.6,1-1.2,1.5-1.8c0,0,0,0,0,0c0.5-0.6,1.1-1.1,1.7-1.6c0,0,0.1-0.1,0.2-0.1
	C200.1,403.9,199.9,406.5,199.4,409z M199,400.9c-0.5,0.5-1,1-1.5,1.5c-0.6,0.7-1.2,1.4-1.8,2.1c-0.3,0.5-0.7,1-1,1.4
	c-1.5-2.3-3.1-4.6-4.6-6.9c-0.5-0.8-1-1.6-1.4-2.5c0,0,0.1,0,0.1,0c1.8-1.5,3.5-2.9,5.4-4.2c0.8-0.5,1.6-1,2.4-1.4
	c0.8-0.4,1.7-0.8,2.5-1.1c0.6-0.2,1.2-0.4,1.9-0.5c0.4-0.1,0.9-0.1,1.3-0.2c-0.8,2-1.3,4.2-1.6,6.4c-0.2,1.4-0.3,2.8-0.4,4.2
	C199.9,400.2,199.4,400.5,199,400.9z M203.2,406.4c-1,1.6-1.9,3.3-2.8,5c0-0.1,0.1-0.2,0.1-0.3c0.5-1.6,0.8-3.2,1.1-4.9
	c0.3-1.6,0.5-3.3,0.7-5c0.2,0.2,0.4,0.4,0.7,0.6c0.5,0.4,0.9,0.9,1.4,1.4c0.2,0.2,0.3,0.4,0.5,0.6
	C204.2,404.8,203.7,405.6,203.2,406.4z M209.5,397.3c-1.5,1.8-2.8,3.7-4.1,5.7c-0.4-0.4-0.7-0.9-1.1-1.3c-0.6-0.6-1.2-1.1-1.9-1.7
	c0.2-1.3,0.4-2.6,0.6-3.9c0.5-2.1,1.1-4.2,2.1-6.2c0.7-1.3,1.6-2.6,2.5-3.8c0.2,0.3,0.4,0.6,0.5,0.9c0.3,0.6,0.6,1.2,0.8,1.9
	c0.2,0.7,0.4,1.4,0.5,2.1c0.1,0.7,0.2,1.4,0.2,2.2C209.7,394.5,209.7,395.9,209.5,397.3z M220.3,384.5
	C220.3,384.4,220.3,384.4,220.3,384.5c-0.2,1-0.5,2-0.9,3c0,0,0,0,0,0c-0.7,0.5-1.3,1.1-2,1.7c-1.9,1.7-3.8,3.5-5.5,5.4
	c-0.4,0.4-0.7,0.9-1.1,1.3c0.2-1.7,0.3-3.4,0.1-5.1c-0.1-1.2-0.3-2.4-0.7-3.6c-0.2-0.5-0.4-1.1-0.6-1.6c-0.1-0.1-0.2-0.3-0.3-0.5
	c-0.1-0.2-0.2-0.4-0.4-0.6c0.2-0.2,0.3-0.4,0.5-0.7c3.1-3.3,6.8-6.1,10.5-8.7c0.2,0.6,0.3,1.1,0.4,1.7c0.1,0.8,0.2,1.6,0.3,2.4
	C220.8,381,220.7,382.7,220.3,384.5z M222.5,385.1c-0.5,0.3-0.9,0.7-1.4,1c0.6-1.8,1-3.7,1.1-5.6c0.1-1.2,0.1-2.5-0.1-3.7
	c-0.1-0.7-0.2-1.4-0.3-2.1c-0.1-0.2-0.1-0.5-0.2-0.8c0.9-0.7,1.8-1.3,2.8-2c-0.3,1.2-0.5,2.5-0.5,3.9c0,2.6,0.4,5.1,0.9,7.4
	C224,383.9,223.2,384.5,222.5,385.1z M243,355.6c-6,2.5-12.1,4.7-18.3,6.4c-6.4,1.8-12.9,3.1-19.5,4c-12.9,1.6-26,1.7-38.9,0
	c-6.5-0.9-13-2.2-19.3-3.9c-6.5-1.8-13-4-19.2-6.6c-11.3-4.9-21.9-11.1-31.7-18.6c-10.1-7.9-19.2-17-27-27.1
	c-4.2-5.5-7.9-11.2-11.3-17.2c2.1,2.8,4.2,5.5,6.4,8.1c11.9,14,26.4,25.7,42.5,34.5c3.1,1.7,6.2,3.2,9.4,4.7
	c15.6,9.8,33,16.7,51,20.3c9.5,1.9,19.3,2.8,29,2.8c9.6,0,19.2-1,28.5-2.8c6.7-1.3,13.3-3,19.7-5.2
	C243.9,355.1,243.4,355.4,243,355.6z M215,357.1c-13.1,1.8-26.4,1.8-39.6,0c-6.4-0.9-12.7-2.2-18.9-3.9c-3.7-1-7.3-2.2-10.9-3.5
	c5.1,1.1,10.2,2,15.4,2.7c19,2.3,38.4,0.9,56.8-4c10.2-2.7,20.2-6.6,29.6-11.4c2.1,3.4,4.8,6.3,7.9,8.3c-1,0.5-2,1-3,1.4
	C240.4,351.8,227.9,355.3,215,357.1z M256.4,372.5c-1.4-0.6-2.6-1.4-3.8-2.3c-1.5-1.1-2.7-2.5-3.9-4c-0.6-0.8-1.1-1.6-1.6-2.5
	c0.6,0.2,1.2,0.4,1.9,0.6c1,0.3,2,0.5,3.1,0.7c0.2,0.9,0.6,1.7,1,2.5c0.6,1.1,1.2,2,1.9,3c0.6,0.8,1.4,1.5,2.2,2.1
	C256.9,372.7,256.6,372.6,256.4,372.5z M268.1,373.9c-2.4,0.3-4.8,0.3-7.1,0c0,0-0.1,0-0.1,0c0,0,0,0-0.1,0
	c-0.4-0.2-0.9-0.4-1.3-0.7c-0.3-0.2-0.6-0.4-0.8-0.5c-0.5-0.3-0.9-0.7-1.3-1.1c-0.4-0.4-0.8-0.8-1.1-1.2c-0.4-0.5-0.8-1.1-1.2-1.7
	c-0.3-0.5-0.5-1-0.8-1.5c0,0,0,0,0,0.1c0,0,0-0.1,0-0.1c0,0,0,0,0,0c-0.2-0.5-0.3-1-0.5-1.5c2.9,0.5,5.9,0.6,8.8,0.6
	c0.4,0,0.8,0,1.2,0c1.4,1.7,3,3.2,4.9,4.4c1.1,0.7,2.3,1.4,3.5,1.9c0.5,0.2,1.1,0.4,1.7,0.6C271.9,373.2,270,373.6,268.1,373.9z
	 M284.9,369.1c-3,1.2-6.1,2.3-9.2,3.2c-0.6-0.2-1.3-0.4-1.9-0.6c-0.9-0.4-1.9-0.8-2.7-1.3c-0.8-0.5-1.6-1-2.4-1.6c0,0,0,0,0,0
	c-0.7-0.6-1.5-1.1-2.1-1.8c-0.4-0.4-0.8-0.8-1.1-1.2c4-0.2,7.9-0.7,11.8-1.3c0.4-0.1,0.9-0.2,1.3-0.2c1.3,1,2.6,2,4.1,2.7
	c0.8,0.4,1.6,0.8,2.4,1.1c0.4,0.1,0.8,0.2,1.3,0.4C285.9,368.6,285.4,368.9,284.9,369.1z M288,367.7c-0.9-0.2-1.7-0.4-2.5-0.7
	c0,0-0.1,0-0.1,0c0,0,0,0,0,0c-0.9-0.3-1.7-0.7-2.5-1.1c-0.8-0.4-1.6-0.9-2.4-1.5c0,0,0,0,0,0c0,0-0.1,0-0.1-0.1
	c-0.1-0.1-0.3-0.2-0.4-0.3c4.5-0.8,9-1.6,13.4-2.5c0.9,0.5,1.7,0.9,2.6,1.3c0.6,0.2,1.2,0.5,1.9,0.7
	C294.7,364.9,291.3,366.3,288,367.7z M301.3,362.1c-0.6,0.2-1.2,0.5-1.8,0.8c0,0,0,0,0,0c-0.7-0.2-1.4-0.5-2.1-0.7
	c-0.7-0.3-1.3-0.6-1.9-0.9c3.4-0.6,6.8-1.2,10.2-1.6c1.1-0.1,2.2-0.2,3.3-0.3C306.3,360.1,303.8,361.1,301.3,362.1z M305.3,354.9
	c0.2,0.1,0.3,0.3,0.5,0.4c1.3,1,2.7,1.8,4.3,2.4c-3.5,0.1-6.9,0.4-10.4,0.8c0.2-0.1,0.3-0.3,0.5-0.5c0.5-0.4,1.1-0.9,1.6-1.2
	c0.6-0.4,1.1-0.7,1.7-1c0.5-0.2,1-0.5,1.6-0.7C305.2,355,305.2,355,305.3,354.9z M298.8,349.6c1.8,1.5,3.6,3.1,5.5,4.6
	c-0.7,0.3-1.4,0.6-2,0.9c-0.5,0.3-1,0.6-1.5,1c-0.6,0.4-1.1,0.8-1.7,1.3c-0.5,0.4-0.9,0.9-1.4,1.3c-4.5,0.5-9,1.2-13.5,1.7
	c0.1-0.1,0.1-0.2,0.2-0.3c0.4-0.5,0.8-1,1.2-1.5c0,0,0,0,0,0c0,0,0.1-0.1,0.1-0.1l0,0c0.9-1.1,2-2.1,3.1-3.1c1-0.9,2.2-1.8,3.3-2.5
	c1.8-1.2,3.8-2.3,5.9-3C298.2,349.8,298.5,349.7,298.8,349.6z M285.1,344.4c1.3-0.1,2.7,0,4,0.1c1.3,0.2,2.6,0.6,3.9,1.1
	c1.7,0.8,3.3,1.8,4.7,3c0,0,0.1,0.1,0.1,0.1c-1.4,0.5-2.7,1-4,1.7c-1.6,0.9-3.2,1.8-4.7,2.9c-2.7,2.1-5.3,4.5-7.1,7.4
	c-0.3,0-0.7,0.1-1,0.1c0,0,0.1,0,0.2,0c-4.3,0.5-8.7,0.9-13,1.1c0.7-1.3,1.4-2.6,2.2-3.8c0.9-1.4,1.9-2.7,3-4c1.3-1.5,2.7-3,4.2-4.3
	c1.4-1.3,2.9-2.4,4.5-3.5c0,0,0,0,0,0C283,345.6,284,345,285.1,344.4z M275.9,346.5c1.2-0.5,2.4-0.9,3.7-1.2
	c0.9-0.2,1.8-0.4,2.7-0.5c-3.1,1.9-6,4.2-8.7,6.8c-3.1,3-5.8,6.4-7.5,10.4c-3.1,0-6.2,0-9.2-0.4c0.1-0.4,0.3-0.7,0.4-1.1
	c0.5-0.9,0.9-1.8,1.5-2.7c0.6-0.9,1.2-1.7,1.8-2.5c0,0,0,0,0,0c0,0,0,0,0.1-0.1l0,0c0.4-0.5,0.9-1,1.4-1.4
	C266.5,351.2,271,348.5,275.9,346.5z M301.3,310.3C301.3,310.3,301.3,310.3,301.3,310.3C301.3,310.3,301.3,310.3,301.3,310.3
	c0,0.1,0,0.1,0,0.1c-1.8,2.3-3.7,4.6-5.6,6.9c-2,2.3-4.1,4.6-6.3,6.8c-1.5,1.2-2.9,2.5-4.4,3.7c-6.7,5.1-13.9,9.7-21.3,13.7
	c0.7-0.6,1.4-1.3,2-1.9c2.9-3.2,5.4-7,7.3-11.3c1.4-3.1,2.5-6.5,3.6-10.4c10.3-8.7,19.4-18.7,27.1-29.8
	c10.6-15.3,18.2-32.7,22.5-50.8c2.7-11.4,4.1-23.2,4.2-35c0.8,6.2,1.2,12.5,1.2,18.7c0,6.6-0.5,13.3-1.3,19.9
	c-1.8,13.1-5.3,25.9-10.4,38.1C315,289.9,308.8,300.6,301.3,310.3z M340,192.3c0-0.1,0-0.2,0-0.3c0,0.1,0,0.3,0,0.4
	c0,0.1,0,0.3,0,0.4c0-0.1,0-0.1,0-0.2c1.6,12.7,1.7,25.6,0,38.4c-1.8,12.9-5.2,25.6-10.2,37.6c-3.1,7.3-6.8,14.3-10.9,21
	c5-9.9,8.9-20.3,11.6-31.1c4.7-18.3,5.8-37.5,3.4-56.3c-1.2-9.3-3.2-18.5-6-27.5c-1.3-7.6-3.2-15.2-5.7-22.5c-0.7-2-1.4-4-2.2-6
	c-0.1-0.7-0.1-1.4-0.3-2c-0.4-2.3-1.1-4.7-2.1-7.1c0.2-0.2,0.5-0.3,0.7-0.5c0.5-0.3,1-0.5,1.5-0.7c3.7,6.1,7,12.5,9.8,19.1
	C334.8,167,338.2,179.5,340,192.3z M334.9,146.9c-0.9-1-1.7-2-2.4-3c-1.2-1.7-2.3-3.6-3.4-5.4c-0.6-1.1-1.2-2.3-1.9-3.4
	c-0.9-1.7-1.7-3.3-2.6-5c-0.1-0.6-0.2-1.2-0.3-1.8c0,0,0,0,0,0c0,0,0-0.1,0-0.1v0c-0.1-1-0.2-2-0.2-3.1c0-1,0-2,0.1-3.1
	c0-0.4,0.1-0.8,0.2-1.1c2.7,1.4,5.4,2.9,7.9,4.6c-0.7,4.2-0.2,8.7,0.8,12.9c0.8,3.5,2,7,3.6,10.2
	C336.1,148.1,335.4,147.5,334.9,146.9z M351.9,153.9c-1.9,0.1-3.7,0.2-5.6-0.1c-1.3-0.2-2.6-0.6-3.9-1.1c-1.2-0.6-2.4-1.3-3.5-2.1
	c-0.6-1-1.1-2.1-1.6-3.2c-0.7-1.7-1.4-3.5-1.9-5.3c-0.5-1.9-0.9-3.9-1.2-5.9c-0.2-1.7-0.3-3.3-0.4-5c0-1.5,0.1-2.9,0.2-4.4
	c3.6,2.5,7,5.2,10.4,8c0,0-0.1-0.1-0.1-0.1c0.3,0.2,0.6,0.4,0.8,0.7c0,3.5,0.8,6.9,2,10.1c0.7,1.7,1.5,3.4,2.4,5
	c0.7,1.3,1.6,2.4,2.5,3.6C352,153.9,351.9,153.9,351.9,153.9C351.9,153.9,351.9,153.9,351.9,153.9z M353.3,153.7
	c-0.2-0.3-0.4-0.5-0.6-0.8c-1.4-1.8-2.5-3.7-3.4-5.8c-0.5-1.3-1-2.6-1.4-3.9c-0.4-1.4-0.7-2.8-0.9-4.3c0,0,0,0,0,0c0,0,0-0.1,0-0.2
	c0,0,0,0,0,0c-0.1-0.6-0.1-1.2-0.2-1.9c0-0.1,0-0.2,0-0.4c3.5,2.9,7,5.9,10.5,8.8c0.2,0.6,0.3,1.2,0.5,1.8c0.2,0.7,0.4,1.3,0.7,2
	c0.2,0.6,0.5,1.1,0.8,1.7c0.3,0.7,0.7,1.3,1.2,1.9C358.1,153,355.7,153.4,353.3,153.7z M362.3,152.6c-0.2,0-0.4,0-0.7,0
	c0-0.1,0-0.2,0-0.2c-0.3-0.4-0.7-0.9-1-1.4c-0.3-0.6-0.6-1.2-0.9-1.8c-0.3-0.6-0.5-1.3-0.7-1.9c-0.1-0.2-0.1-0.5-0.2-0.7
	c2.7,2.2,5.4,4.3,8.3,6.2C365.5,152.6,363.9,152.5,362.3,152.6z M364.5,148.9c-2.7-2.2-5.2-4.5-7.8-6.9c0.7,0.1,1.4,0.1,2.1,0.3
	c0.7,0.2,1.5,0.3,2.2,0.6c0,0,0,0,0,0c0.4,0.5,0.7,1.1,1.1,1.6c1.6,2.3,3.3,4.5,5.1,6.6C366.4,150.4,365.4,149.7,364.5,148.9z"/>
<linearGradient id="SVGID_13_" gradientUnits="userSpaceOnUse" x1="325.232" y1="306.9598" x2="325.232" y2="306.9358" gradientTransform="matrix(1 0 0 -1 0 421.8898)">
	<stop  offset="0" style="stop-color:#252D43"/>
	<stop  offset="1" style="stop-color:#27365F"/>
</linearGradient>
<path class="st12" d="M325.2,114.9L325.2,114.9L325.2,114.9z"/>
<linearGradient id="SVGID_14_" gradientUnits="userSpaceOnUse" x1="325.208" y1="306.9358" x2="325.208" y2="306.9108" gradientTransform="matrix(1 0 0 -1 0 421.8898)">
	<stop  offset="0" style="stop-color:#252D43"/>
	<stop  offset="1" style="stop-color:#27365F"/>
</linearGradient>
<path class="st13" d="M325.2,115L325.2,115C325.2,115,325.2,115,325.2,115z"/>
<linearGradient id="SVGID_15_" gradientUnits="userSpaceOnUse" x1="346.9935" y1="283.0528" x2="346.9935" y2="282.9059" gradientTransform="matrix(1 0 0 -1 0 421.8898)">
	<stop  offset="0" style="stop-color:#252D43"/>
	<stop  offset="1" style="stop-color:#27365F"/>
</linearGradient>
<path class="st14" d="M347,139L347,139c0,0,0-0.1,0-0.1C347,138.9,347,138.9,347,139z"/>
<linearGradient id="SVGID_16_" gradientUnits="userSpaceOnUse" x1="324.259" y1="293.7379" x2="324.259" y2="293.6158" gradientTransform="matrix(1 0 0 -1 0 421.8898)">
	<stop  offset="0" style="stop-color:#252D43"/>
	<stop  offset="1" style="stop-color:#27365F"/>
</linearGradient>
<path class="st15" d="M324.2,128.2C324.2,128.2,324.2,128.2,324.2,128.2C324.3,128.2,324.3,128.2,324.2,128.2
	C324.2,128.2,324.2,128.2,324.2,128.2z"/>
<linearGradient id="SVGID_17_" gradientUnits="userSpaceOnUse" x1="93.2182" y1="364.2884" x2="93.2182" y2="364.2394" gradientTransform="matrix(1 0 0 -1 0 421.8898)">
	<stop  offset="0" style="stop-color:#252D43"/>
	<stop  offset="1" style="stop-color:#27365F"/>
</linearGradient>
<path class="st16" d="M93.3,57.7C93.2,57.6,93.2,57.6,93.3,57.7C93.2,57.6,93.2,57.7,93.3,57.7z"/>
<linearGradient id="SVGID_18_" gradientUnits="userSpaceOnUse" x1="119.43" y1="366.8743" x2="119.43" y2="366.8255" gradientTransform="matrix(1 0 0 -1 0 421.8898)">
	<stop  offset="0" style="stop-color:#252D43"/>
	<stop  offset="1" style="stop-color:#27365F"/>
</linearGradient>
<path class="st17" d="M119.4,55C119.4,55,119.4,55,119.4,55C119.4,55,119.4,55.1,119.4,55L119.4,55z"/>
<linearGradient id="SVGID_19_" gradientUnits="userSpaceOnUse" x1="88.2001" y1="358.5556" x2="88.2001" y2="358.4391" gradientTransform="matrix(1 0 0 -1 0 421.8898)">
	<stop  offset="0" style="stop-color:#252D43"/>
	<stop  offset="1" style="stop-color:#27365F"/>
</linearGradient>
<path class="st18" d="M88.2,63.4C88.2,63.4,88.2,63.4,88.2,63.4C88.2,63.4,88.2,63.4,88.2,63.4C88.1,63.5,88.1,63.5,88.2,63.4z"/>
</svg>
