<svg xmlns="http://www.w3.org/2000/svg" xmlns:xlink="http://www.w3.org/1999/xlink" width="150" zoomAndPan="magnify" viewBox="0 0 112.5 112.499997" height="150" preserveAspectRatio="xMidYMid meet" version="1.0"><defs><clipPath id="4553ebca61"><path d="M 0 4.992188 L 112.003906 4.992188 L 112.003906 107.742188 L 0 107.742188 Z M 0 4.992188 " clip-rule="nonzero"/></clipPath></defs><path fill="#ffc0cb" d="M 41.488281 53.726562 C 37.414062 53.726562 34.109375 57.035156 34.109375 61.121094 C 34.109375 65.207031 37.414062 68.519531 41.488281 68.519531 C 45.566406 68.519531 48.871094 65.207031 48.871094 61.121094 C 48.871094 57.035156 45.566406 53.726562 41.488281 53.726562 " fill-opacity="1" fill-rule="nonzero"/><path fill="#ffc0cb" d="M 78.390625 61.121094 C 78.390625 57.035156 75.085938 53.726562 71.007812 53.726562 C 66.933594 53.726562 63.628906 57.035156 63.628906 61.121094 C 63.628906 65.207031 66.933594 68.519531 71.007812 68.519531 C 75.085938 68.519531 78.390625 65.207031 78.390625 61.121094 " fill-opacity="1" fill-rule="nonzero"/><g clip-path="url(#4553ebca61)"><path fill="#ffc0cb" d="M 56.25 4.992188 C 25.199219 4.992188 0.0273438 30.222656 0.0273438 61.34375 C 0.0273438 80.585938 9.648438 97.574219 24.335938 107.742188 C 27.660156 101.296875 33.785156 96.066406 41.453125 93.082031 C 33.351562 89.929688 26.972656 84.269531 23.800781 77.316406 C 17.84375 77.179688 13.058594 72.300781 13.058594 66.300781 C 13.058594 62.039062 15.472656 58.34375 19.003906 56.507812 L 19.003906 35.285156 C 17.566406 34.757812 16.539062 33.371094 16.539062 31.742188 C 16.539062 29.660156 18.222656 27.972656 20.300781 27.972656 C 22.378906 27.972656 24.066406 29.660156 24.066406 31.742188 C 24.066406 33.371094 23.039062 34.757812 21.597656 35.285156 L 21.597656 55.554688 C 22.390625 55.375 23.210938 55.277344 24.058594 55.277344 L 24.824219 55.277344 C 30.339844 45.542969 42.335938 38.796875 56.25 38.796875 C 70.164062 38.796875 82.160156 45.542969 87.671875 55.277344 L 88.441406 55.277344 C 94.515625 55.277344 99.441406 60.210938 99.441406 66.300781 C 99.441406 72.300781 94.652344 77.179688 88.699219 77.316406 C 85.527344 84.269531 79.148438 89.929688 71.046875 93.082031 C 78.714844 96.066406 84.839844 101.296875 88.164062 107.742188 C 102.851562 97.574219 112.472656 80.585938 112.472656 61.34375 C 112.472656 30.222656 87.300781 4.992188 56.25 4.992188 " fill-opacity="1" fill-rule="nonzero"/></g></svg>